<mxfile host="app.diagrams.net" modified="2023-03-06T21:55:06.327Z" agent="5.0 (X11; Ubuntu)" etag="RlcLIjryXW7SPyH2uM7k" version="21.0.2" type="github">
  <diagram name="Page-1" id="e7e014a7-5840-1c2e-5031-d8a46d1fe8dd">
    <mxGraphModel dx="1600" dy="795" grid="1" gridSize="10" guides="1" tooltips="1" connect="1" arrows="1" fold="1" page="1" pageScale="1" pageWidth="1169" pageHeight="826" background="none" math="0" shadow="0">
      <root>
        <mxCell id="0" />
        <mxCell id="1" parent="0" />
        <mxCell id="x12odeNjpE8xSzRWjAji-38" style="edgeStyle=orthogonalEdgeStyle;rounded=0;orthogonalLoop=1;jettySize=auto;html=1;" edge="1" parent="1" source="x12odeNjpE8xSzRWjAji-49" target="x12odeNjpE8xSzRWjAji-65">
          <mxGeometry relative="1" as="geometry" />
        </mxCell>
        <mxCell id="x12odeNjpE8xSzRWjAji-39" value="" style="edgeStyle=orthogonalEdgeStyle;rounded=0;orthogonalLoop=1;jettySize=auto;html=1;" edge="1" parent="1" source="x12odeNjpE8xSzRWjAji-66" target="x12odeNjpE8xSzRWjAji-74">
          <mxGeometry relative="1" as="geometry" />
        </mxCell>
        <mxCell id="x12odeNjpE8xSzRWjAji-40" value="" style="edgeStyle=orthogonalEdgeStyle;rounded=0;orthogonalLoop=1;jettySize=auto;html=1;" edge="1" parent="1" source="x12odeNjpE8xSzRWjAji-41" target="x12odeNjpE8xSzRWjAji-44">
          <mxGeometry relative="1" as="geometry" />
        </mxCell>
        <mxCell id="x12odeNjpE8xSzRWjAji-41" value="" style="ellipse;shape=startState;fillColor=#000000;strokeColor=#ff0000;" vertex="1" parent="1">
          <mxGeometry x="264.5" y="168" width="30" height="30" as="geometry" />
        </mxCell>
        <mxCell id="x12odeNjpE8xSzRWjAji-42" value="" style="edgeStyle=orthogonalEdgeStyle;rounded=0;orthogonalLoop=1;jettySize=auto;html=1;" edge="1" parent="1" source="x12odeNjpE8xSzRWjAji-44" target="x12odeNjpE8xSzRWjAji-47">
          <mxGeometry relative="1" as="geometry" />
        </mxCell>
        <mxCell id="x12odeNjpE8xSzRWjAji-43" value="" style="edgeStyle=orthogonalEdgeStyle;rounded=0;orthogonalLoop=1;jettySize=auto;html=1;strokeColor=#FF0000;" edge="1" parent="1" source="x12odeNjpE8xSzRWjAji-44" target="x12odeNjpE8xSzRWjAji-55">
          <mxGeometry relative="1" as="geometry" />
        </mxCell>
        <mxCell id="x12odeNjpE8xSzRWjAji-44" value="Signup" style="" vertex="1" parent="1">
          <mxGeometry x="224.5" y="238" width="110" height="50" as="geometry" />
        </mxCell>
        <mxCell id="x12odeNjpE8xSzRWjAji-45" value="" style="edgeStyle=orthogonalEdgeStyle;rounded=0;orthogonalLoop=1;jettySize=auto;html=1;" edge="1" parent="1" source="x12odeNjpE8xSzRWjAji-47" target="x12odeNjpE8xSzRWjAji-49">
          <mxGeometry relative="1" as="geometry" />
        </mxCell>
        <mxCell id="x12odeNjpE8xSzRWjAji-46" value="" style="edgeStyle=orthogonalEdgeStyle;rounded=0;orthogonalLoop=1;jettySize=auto;html=1;strokeColor=#FF0000;" edge="1" parent="1" source="x12odeNjpE8xSzRWjAji-47" target="x12odeNjpE8xSzRWjAji-53">
          <mxGeometry relative="1" as="geometry" />
        </mxCell>
        <mxCell id="x12odeNjpE8xSzRWjAji-47" value="Login" style="" vertex="1" parent="1">
          <mxGeometry x="224.5" y="348" width="110" height="50" as="geometry" />
        </mxCell>
        <mxCell id="x12odeNjpE8xSzRWjAji-48" value="" style="edgeStyle=orthogonalEdgeStyle;rounded=0;orthogonalLoop=1;jettySize=auto;html=1;strokeColor=#FF0000;" edge="1" parent="1" source="x12odeNjpE8xSzRWjAji-49" target="x12odeNjpE8xSzRWjAji-51">
          <mxGeometry relative="1" as="geometry" />
        </mxCell>
        <mxCell id="x12odeNjpE8xSzRWjAji-49" value="Verify Login" style="" vertex="1" parent="1">
          <mxGeometry x="224.5" y="453" width="110" height="50" as="geometry" />
        </mxCell>
        <mxCell id="x12odeNjpE8xSzRWjAji-50" style="edgeStyle=orthogonalEdgeStyle;rounded=0;orthogonalLoop=1;jettySize=auto;html=1;exitX=0;exitY=0.5;exitDx=0;exitDy=0;entryX=-0.005;entryY=0.56;entryDx=0;entryDy=0;entryPerimeter=0;strokeColor=#FF0000;" edge="1" parent="1" source="x12odeNjpE8xSzRWjAji-51" target="x12odeNjpE8xSzRWjAji-49">
          <mxGeometry relative="1" as="geometry" />
        </mxCell>
        <mxCell id="x12odeNjpE8xSzRWjAji-51" value="&lt;div&gt;Login&lt;/div&gt;&lt;div&gt;NOT&lt;/div&gt;&lt;div&gt;Verified&lt;br&gt;&lt;/div&gt;" style="rhombus;whiteSpace=wrap;html=1;fillColor=rgb(255, 255, 255);" vertex="1" parent="1">
          <mxGeometry x="239.5" y="568" width="80" height="80" as="geometry" />
        </mxCell>
        <mxCell id="x12odeNjpE8xSzRWjAji-52" style="edgeStyle=orthogonalEdgeStyle;rounded=0;orthogonalLoop=1;jettySize=auto;html=1;exitX=0.5;exitY=0;exitDx=0;exitDy=0;entryX=0.705;entryY=0.02;entryDx=0;entryDy=0;entryPerimeter=0;strokeColor=#FF0000;" edge="1" parent="1" source="x12odeNjpE8xSzRWjAji-53" target="x12odeNjpE8xSzRWjAji-47">
          <mxGeometry relative="1" as="geometry" />
        </mxCell>
        <mxCell id="x12odeNjpE8xSzRWjAji-53" value="&lt;div&gt;Login&lt;/div&gt;&lt;div&gt;Failed&lt;br&gt;&lt;/div&gt;" style="rhombus;whiteSpace=wrap;html=1;fillColor=rgb(255, 255, 255);" vertex="1" parent="1">
          <mxGeometry x="350" y="333" width="80" height="80" as="geometry" />
        </mxCell>
        <mxCell id="x12odeNjpE8xSzRWjAji-54" style="edgeStyle=orthogonalEdgeStyle;rounded=0;orthogonalLoop=1;jettySize=auto;html=1;exitX=0.5;exitY=0;exitDx=0;exitDy=0;entryX=0.741;entryY=0;entryDx=0;entryDy=0;entryPerimeter=0;strokeColor=#FF0000;" edge="1" parent="1" source="x12odeNjpE8xSzRWjAji-55" target="x12odeNjpE8xSzRWjAji-44">
          <mxGeometry relative="1" as="geometry" />
        </mxCell>
        <mxCell id="x12odeNjpE8xSzRWjAji-55" value="&lt;div&gt;Signup&lt;/div&gt;&lt;div&gt;Failed&lt;br&gt;&lt;/div&gt;" style="rhombus;whiteSpace=wrap;html=1;fillColor=rgb(255, 255, 255);" vertex="1" parent="1">
          <mxGeometry x="350" y="223" width="80" height="80" as="geometry" />
        </mxCell>
        <mxCell id="x12odeNjpE8xSzRWjAji-56" value="" style="edgeStyle=orthogonalEdgeStyle;rounded=0;orthogonalLoop=1;jettySize=auto;html=1;" edge="1" parent="1" source="x12odeNjpE8xSzRWjAji-57" target="x12odeNjpE8xSzRWjAji-60">
          <mxGeometry relative="1" as="geometry" />
        </mxCell>
        <mxCell id="x12odeNjpE8xSzRWjAji-57" value="" style="ellipse;shape=startState;fillColor=#000000;strokeColor=#ff0000;" vertex="1" parent="1">
          <mxGeometry x="510" y="168" width="30" height="30" as="geometry" />
        </mxCell>
        <mxCell id="x12odeNjpE8xSzRWjAji-58" value="" style="edgeStyle=orthogonalEdgeStyle;rounded=0;orthogonalLoop=1;jettySize=auto;html=1;strokeColor=#FF0000;" edge="1" parent="1" source="x12odeNjpE8xSzRWjAji-60" target="x12odeNjpE8xSzRWjAji-68">
          <mxGeometry relative="1" as="geometry" />
        </mxCell>
        <mxCell id="x12odeNjpE8xSzRWjAji-59" value="" style="edgeStyle=orthogonalEdgeStyle;rounded=0;orthogonalLoop=1;jettySize=auto;html=1;" edge="1" parent="1" source="x12odeNjpE8xSzRWjAji-60" target="x12odeNjpE8xSzRWjAji-63">
          <mxGeometry relative="1" as="geometry" />
        </mxCell>
        <mxCell id="x12odeNjpE8xSzRWjAji-60" value="Login" style="" vertex="1" parent="1">
          <mxGeometry x="470" y="238" width="110" height="50" as="geometry" />
        </mxCell>
        <mxCell id="x12odeNjpE8xSzRWjAji-61" value="" style="edgeStyle=orthogonalEdgeStyle;rounded=0;orthogonalLoop=1;jettySize=auto;html=1;strokeColor=#FF0000;" edge="1" parent="1" source="x12odeNjpE8xSzRWjAji-63" target="x12odeNjpE8xSzRWjAji-70">
          <mxGeometry relative="1" as="geometry" />
        </mxCell>
        <mxCell id="x12odeNjpE8xSzRWjAji-62" value="" style="edgeStyle=orthogonalEdgeStyle;rounded=0;orthogonalLoop=1;jettySize=auto;html=1;" edge="1" parent="1" source="x12odeNjpE8xSzRWjAji-63" target="x12odeNjpE8xSzRWjAji-65">
          <mxGeometry relative="1" as="geometry" />
        </mxCell>
        <mxCell id="x12odeNjpE8xSzRWjAji-63" value="Verify Login" style="" vertex="1" parent="1">
          <mxGeometry x="470" y="348" width="110" height="50" as="geometry" />
        </mxCell>
        <mxCell id="x12odeNjpE8xSzRWjAji-64" value="" style="edgeStyle=orthogonalEdgeStyle;rounded=0;orthogonalLoop=1;jettySize=auto;html=1;" edge="1" parent="1" source="x12odeNjpE8xSzRWjAji-65" target="x12odeNjpE8xSzRWjAji-66">
          <mxGeometry relative="1" as="geometry" />
        </mxCell>
        <mxCell id="x12odeNjpE8xSzRWjAji-65" value="Look for item" style="" vertex="1" parent="1">
          <mxGeometry x="470" y="453" width="110" height="50" as="geometry" />
        </mxCell>
        <mxCell id="x12odeNjpE8xSzRWjAji-66" value="View Item&#xa;Descriptions&#xa;" style="fillColor=rgb(255, 255, 255);strokeColor=rgb(0, 0, 0);fontColor=rgb(0, 0, 0);" vertex="1" parent="1">
          <mxGeometry x="605.5" y="453" width="110" height="50" as="geometry" />
        </mxCell>
        <mxCell id="x12odeNjpE8xSzRWjAji-67" style="edgeStyle=orthogonalEdgeStyle;rounded=0;orthogonalLoop=1;jettySize=auto;html=1;exitX=0.5;exitY=0;exitDx=0;exitDy=0;entryX=0.723;entryY=0.02;entryDx=0;entryDy=0;entryPerimeter=0;strokeColor=#FF0000;" edge="1" parent="1" source="x12odeNjpE8xSzRWjAji-68" target="x12odeNjpE8xSzRWjAji-60">
          <mxGeometry relative="1" as="geometry" />
        </mxCell>
        <mxCell id="x12odeNjpE8xSzRWjAji-68" value="&lt;div&gt;Login&lt;/div&gt;&lt;div&gt;Failed&lt;br&gt;&lt;/div&gt;" style="rhombus;whiteSpace=wrap;html=1;fillColor=rgb(255, 255, 255);" vertex="1" parent="1">
          <mxGeometry x="620.5" y="223" width="80" height="80" as="geometry" />
        </mxCell>
        <mxCell id="x12odeNjpE8xSzRWjAji-69" style="edgeStyle=orthogonalEdgeStyle;rounded=0;orthogonalLoop=1;jettySize=auto;html=1;exitX=0.5;exitY=0;exitDx=0;exitDy=0;entryX=0.686;entryY=0;entryDx=0;entryDy=0;entryPerimeter=0;strokeColor=#FF0000;" edge="1" parent="1" source="x12odeNjpE8xSzRWjAji-70" target="x12odeNjpE8xSzRWjAji-63">
          <mxGeometry relative="1" as="geometry" />
        </mxCell>
        <mxCell id="x12odeNjpE8xSzRWjAji-70" value="&lt;div&gt;Login&lt;/div&gt;&lt;div&gt;NOT&lt;br&gt;&lt;/div&gt;&lt;div&gt;Verified&lt;br&gt;&lt;/div&gt;" style="rhombus;whiteSpace=wrap;html=1;fillColor=rgb(255, 255, 255);" vertex="1" parent="1">
          <mxGeometry x="620.5" y="333" width="80" height="80" as="geometry" />
        </mxCell>
        <mxCell id="x12odeNjpE8xSzRWjAji-71" value="" style="ellipse;shape=endState;fillColor=#000000;strokeColor=#ff0000" vertex="1" parent="1">
          <mxGeometry x="995" y="620" width="30" height="30" as="geometry" />
        </mxCell>
        <mxCell id="x12odeNjpE8xSzRWjAji-72" value="" style="edgeStyle=orthogonalEdgeStyle;rounded=0;orthogonalLoop=1;jettySize=auto;html=1;" edge="1" parent="1" source="x12odeNjpE8xSzRWjAji-74" target="x12odeNjpE8xSzRWjAji-76">
          <mxGeometry relative="1" as="geometry" />
        </mxCell>
        <mxCell id="x12odeNjpE8xSzRWjAji-73" value="" style="edgeStyle=orthogonalEdgeStyle;rounded=0;orthogonalLoop=1;jettySize=auto;html=1;" edge="1" parent="1" source="x12odeNjpE8xSzRWjAji-74" target="x12odeNjpE8xSzRWjAji-78">
          <mxGeometry relative="1" as="geometry" />
        </mxCell>
        <mxCell id="x12odeNjpE8xSzRWjAji-74" value="Verify Prices" style="fillColor=rgb(255, 255, 255);strokeColor=rgb(0, 0, 0);fontColor=rgb(0, 0, 0);" vertex="1" parent="1">
          <mxGeometry x="790" y="453" width="110" height="50" as="geometry" />
        </mxCell>
        <mxCell id="x12odeNjpE8xSzRWjAji-75" value="Yes" style="edgeStyle=orthogonalEdgeStyle;rounded=0;orthogonalLoop=1;jettySize=auto;html=1;strokeColor=#00CC00;" edge="1" parent="1" source="x12odeNjpE8xSzRWjAji-76" target="x12odeNjpE8xSzRWjAji-71">
          <mxGeometry relative="1" as="geometry" />
        </mxCell>
        <mxCell id="x12odeNjpE8xSzRWjAji-76" value="Purchase?" style="rhombus;whiteSpace=wrap;html=1;fillColor=rgb(255, 255, 255);" vertex="1" parent="1">
          <mxGeometry x="970" y="438" width="80" height="80" as="geometry" />
        </mxCell>
        <mxCell id="x12odeNjpE8xSzRWjAji-77" value="" style="edgeStyle=orthogonalEdgeStyle;rounded=0;orthogonalLoop=1;jettySize=auto;html=1;" edge="1" parent="1" source="x12odeNjpE8xSzRWjAji-78" target="x12odeNjpE8xSzRWjAji-81">
          <mxGeometry relative="1" as="geometry" />
        </mxCell>
        <mxCell id="x12odeNjpE8xSzRWjAji-78" value="Compare Prices&#xa;from Different&#xa;Sellers&#xa;" style="fillColor=rgb(255, 255, 255);strokeColor=rgb(0, 0, 0);fontColor=rgb(0, 0, 0);" vertex="1" parent="1">
          <mxGeometry x="790" y="308" width="110" height="65" as="geometry" />
        </mxCell>
        <mxCell id="x12odeNjpE8xSzRWjAji-79" value="YES" style="edgeStyle=orthogonalEdgeStyle;rounded=0;orthogonalLoop=1;jettySize=auto;html=1;exitX=0.5;exitY=1;exitDx=0;exitDy=0;entryX=1;entryY=0.5;entryDx=0;entryDy=0;strokeColor=#00CC00;" edge="1" parent="1" source="x12odeNjpE8xSzRWjAji-81" target="x12odeNjpE8xSzRWjAji-76">
          <mxGeometry relative="1" as="geometry" />
        </mxCell>
        <mxCell id="x12odeNjpE8xSzRWjAji-80" value="NO" style="edgeStyle=orthogonalEdgeStyle;rounded=0;orthogonalLoop=1;jettySize=auto;html=1;exitX=0.5;exitY=0;exitDx=0;exitDy=0;entryX=0;entryY=0.14;entryDx=0;entryDy=0;entryPerimeter=0;strokeColor=#FF0000;" edge="1" parent="1" source="x12odeNjpE8xSzRWjAji-81" target="x12odeNjpE8xSzRWjAji-74">
          <mxGeometry relative="1" as="geometry">
            <mxPoint x="750" y="460" as="targetPoint" />
            <Array as="points">
              <mxPoint x="1010" y="281" />
              <mxPoint x="750" y="281" />
              <mxPoint x="750" y="460" />
            </Array>
          </mxGeometry>
        </mxCell>
        <mxCell id="x12odeNjpE8xSzRWjAji-81" value="&lt;div&gt;Is Price&lt;/div&gt;&lt;div&gt;Better?&lt;br&gt;&lt;/div&gt;" style="rhombus;whiteSpace=wrap;html=1;fillColor=rgb(255, 255, 255);" vertex="1" parent="1">
          <mxGeometry x="970" y="300.5" width="80" height="80" as="geometry" />
        </mxCell>
        <mxCell id="x12odeNjpE8xSzRWjAji-82" value="NO" style="edgeStyle=orthogonalEdgeStyle;rounded=0;orthogonalLoop=1;jettySize=auto;html=1;exitX=0.5;exitY=0;exitDx=0;exitDy=0;entryX=0.741;entryY=-0.02;entryDx=0;entryDy=0;entryPerimeter=0;strokeColor=#FF0000;" edge="1" parent="1" source="x12odeNjpE8xSzRWjAji-76" target="x12odeNjpE8xSzRWjAji-65">
          <mxGeometry relative="1" as="geometry" />
        </mxCell>
      </root>
    </mxGraphModel>
  </diagram>
</mxfile>
